<svg xmlns="http://www.w3.org/2000/svg" viewBox="0 0 512 512" id="shield"><defs><linearGradient id="a" x1="256" x2="256" y1="33.713" y2="480.032" gradientUnits="userSpaceOnUse"><stop offset="0" stop-color="#a200ff" class="stopColor00efd1 svgShape"></stop><stop offset="1" stop-color="#005dc7" class="stopColor00acea svgShape"></stop></linearGradient></defs><path fill="url(#a)" d="M256,378.472A122.472,122.472,0,1,0,133.528,256,122.611,122.611,0,0,0,256,378.472Zm0-232.944A110.472,110.472,0,1,1,145.528,256,110.6,110.6,0,0,1,256,145.528Z"></path><path fill="url(#a)" d="M234.771,292.712a6,6,0,0,0,8.463.357l71.279-65.289a6,6,0,1,0-8.106-8.849l-66.869,61.25L205.951,243.76a6,6,0,0,0-8.822,8.135Z"></path><path fill="url(#a)" d="M451.832,103.982,258.552,9.008a5.9,5.9,0,0,0-5.237,0L60.151,103.718A5.812,5.812,0,0,0,57,109.106v177c0,46.432,29.885,103.308,68.272,129.483l127.44,86.978a5.854,5.854,0,0,0,3.335,1.043,5.922,5.922,0,0,0,3.357-1.043l127.332-86.977C425.126,389.411,455,332.535,455,286.1V109.367A5.833,5.833,0,0,0,451.832,103.982ZM443,286.1c0,42.876-27.584,95.4-63.036,119.568L255.907,490.343,131.987,405.67C96.536,381.5,69,328.978,69,286.1V112.848L256,21.077l187,92.028Z"></path><path fill="url(#a)" d="M86.571,120.429A6.2,6.2,0,0,0,83,125.817V286.1c0,37.21,26.2,86.369,56.972,107.347l112.542,76.683a6.157,6.157,0,0,0,3.434,1.043,6.074,6.074,0,0,0,3.407-1.043L372.012,393.45C402.782,372.471,429,323.312,429,286.1V126.058a6.2,6.2,0,0,0-3.564-5.386L258.75,38.851a6.342,6.342,0,0,0-5.441,0ZM417,129.795V286.1c0,33.772-23.806,78.39-51.735,97.432l-109.16,74.378-109.32-74.379C118.857,364.493,95,319.874,95,286.1V129.56L256,50.919Z"></path></svg>