<svg xmlns="http://www.w3.org/2000/svg" viewBox="0 0 69 69" id="Vision"><linearGradient id="a" x1="15.228" x2="55.756" y1="4.638" y2="67.448" gradientUnits="userSpaceOnUse"><stop offset="0" stop-color="#a200ff" class="stopColord810fb svgShape"></stop><stop offset="1" stop-color="#005dc7" class="stopColor3953ed svgShape"></stop></linearGradient><path fill="url(#a)" d="M67.22 33.811c-.598-.618-14.831-15.146-32.72-15.146S2.378 33.193 1.78 33.811a1 1 0 0 0 .001 1.39c.597.618 14.83 15.134 32.719 15.134.013 0 .023-.007.036-.007 8.716-.015 15.802-7.109 15.802-15.828 0-3.576-1.164-6.95-3.365-9.759a1 1 0 1 0-1.574 1.234 13.69 13.69 0 0 1 2.939 8.525c0 7.625-6.204 13.829-13.829 13.829-7.635 0-13.847-6.204-13.847-13.829s6.212-13.83 13.847-13.83c2.539 0 5.021.694 7.18 2.007a.999.999 0 0 0 1.374-.334.978.978 0 0 0 .13-.483c10.883 2.916 19.415 10.337 21.872 12.645-2.239 2.107-9.525 8.474-19.007 11.769a1 1 0 0 0 .656 1.89C58.59 44.037 66.872 35.56 67.219 35.201a1 1 0 0 0 .001-1.39zm-48.558.689c0 4.946 2.285 9.365 5.853 12.27-10.262-3.128-18.221-10.05-20.58-12.266 2.357-2.218 10.311-9.149 20.582-12.277-3.569 2.906-5.855 7.326-5.855 12.273z"></path><linearGradient id="b" x1="15.226" x2="55.753" y1="4.64" y2="67.449" gradientUnits="userSpaceOnUse"><stop offset="0" stop-color="#a200ff" class="stopColord810fb svgShape"></stop><stop offset="1" stop-color="#005dc7" class="stopColor3953ed svgShape"></stop></linearGradient><path fill="url(#b)" d="M34.5 40.065a5.586 5.586 0 0 1-5.073-3.265 1 1 0 0 0-1.82.828 7.592 7.592 0 0 0 6.894 4.437c4.174 0 7.57-3.396 7.57-7.57 0-3.681-2.735-6.884-6.346-7.453l-.035-.006a6.98 6.98 0 0 0-1.189-.101 7.56 7.56 0 0 0-7.534 6.774.998.998 0 0 0 .579 1.015c.829.378 1.723.57 2.655.57a6.423 6.423 0 0 0 6.403-5.943c2.042.835 3.467 2.865 3.467 5.143a5.578 5.578 0 0 1-5.571 5.571zm-4.3-6.77c-.382 0-.754-.046-1.111-.138a5.58 5.58 0 0 1 5.531-4.221 4.42 4.42 0 0 1-4.42 4.359z"></path><linearGradient id="c" x1="26.061" x2="66.588" y1="-2.351" y2="60.458" gradientUnits="userSpaceOnUse"><stop offset="0" stop-color="#a200ff" class="stopColord810fb svgShape"></stop><stop offset="1" stop-color="#005dc7" class="stopColor3953ed svgShape"></stop></linearGradient><path fill="url(#c)" d="M34.5 13.991a1 1 0 0 0 1-1V8.464a1 1 0 1 0-2 0v4.527a1 1 0 0 0 1 1z"></path><linearGradient id="d" x1="16.218" x2="56.745" y1="4" y2="66.809" gradientUnits="userSpaceOnUse"><stop offset="0" stop-color="#a200ff" class="stopColord810fb svgShape"></stop><stop offset="1" stop-color="#005dc7" class="stopColor3953ed svgShape"></stop></linearGradient><path fill="url(#d)" d="M22.879 16.373a1 1 0 1 0 1.732-1l-2.263-3.92a1 1 0 1 0-1.732 1l2.263 3.92z"></path><linearGradient id="e" x1="-2.541" x2="37.987" y1="16.103" y2="78.913" gradientUnits="userSpaceOnUse"><stop offset="0" stop-color="#a200ff" class="stopColord810fb svgShape"></stop><stop offset="1" stop-color="#005dc7" class="stopColor3953ed svgShape"></stop></linearGradient><path fill="url(#e)" d="M24.245 52.261a.999.999 0 0 0-1.366.366l-2.263 3.92a1 1 0 0 0 1.732 1l2.263-3.92a.999.999 0 0 0-.366-1.366z"></path><linearGradient id="f" x1="4.401" x2="44.928" y1="11.624" y2="74.434" gradientUnits="userSpaceOnUse"><stop offset="0" stop-color="#a200ff" class="stopColord810fb svgShape"></stop><stop offset="1" stop-color="#005dc7" class="stopColor3953ed svgShape"></stop></linearGradient><path fill="url(#f)" d="M34.5 55.009a1 1 0 0 0-1 1v4.527a1 1 0 1 0 2 0v-4.527a1 1 0 0 0-1-1z"></path><linearGradient id="g" x1="14.244" x2="54.771" y1="5.273" y2="68.083" gradientUnits="userSpaceOnUse"><stop offset="0" stop-color="#a200ff" class="stopColord810fb svgShape"></stop><stop offset="1" stop-color="#005dc7" class="stopColor3953ed svgShape"></stop></linearGradient><path fill="url(#g)" d="M46.121 52.627a1 1 0 1 0-1.732 1l2.263 3.92a1 1 0 1 0 1.732-1l-2.263-3.92z"></path><linearGradient id="h" x1="33.002" x2="73.529" y1="-6.83" y2="55.979" gradientUnits="userSpaceOnUse"><stop offset="0" stop-color="#a200ff" class="stopColord810fb svgShape"></stop><stop offset="1" stop-color="#005dc7" class="stopColor3953ed svgShape"></stop></linearGradient><path fill="url(#h)" d="M44.755 16.739a.998.998 0 0 0 1.366-.366l2.263-3.92a1 1 0 0 0-1.732-1l-2.263 3.92a.999.999 0 0 0 .366 1.366z"></path></svg>